<svg width="1120" height="227" viewBox="0 0 1120 227" fill="none" xmlns="http://www.w3.org/2000/svg">
<g clip-path="url(#clip0_1_56)">
<path d="M-56 -23L-34.8167 -1.43375C-13.6333 20.5375 28.7333 63.0625 71.1 74.2C113.467 85.3375 155.833 63.0625 198.2 63.3663C240.567 63.0625 282.933 85.3375 325.3 85.0338C367.667 85.3375 410.033 63.0625 452.4 79.5663C494.767 95.4625 537.133 150.138 579.5 171.4C621.867 192.663 664.233 182.538 706.6 176.766C748.967 171.4 791.333 171.4 833.7 149.834C876.067 127.863 918.433 85.3375 960.8 74.2C1003.17 63.0625 1045.53 85.3375 1087.9 90.4C1130.27 95.4625 1172.63 85.3375 1193.82 79.5663L1215 74.2V301H1193.82C1172.63 301 1130.27 301 1087.9 301C1045.53 301 1003.17 301 960.8 301C918.433 301 876.067 301 833.7 301C791.333 301 748.967 301 706.6 301C664.233 301 621.867 301 579.5 301C537.133 301 494.767 301 452.4 301C410.033 301 367.667 301 325.3 301C282.933 301 240.567 301 198.2 301C155.833 301 113.467 301 71.1 301C28.7333 301 -13.6333 301 -34.8167 301H-56V-23Z" fill="#307DB8"/>
</g>
<defs>
<clipPath id="clip0_1_56">
<rect width="1190" height="313" fill="white"/>
</clipPath>
</defs>
</svg>
