<?xml version="1.0" standalone="no"?>
<!DOCTYPE svg PUBLIC "-//W3C//DTD SVG 20010904//EN"
 "http://www.w3.org/TR/2001/REC-SVG-20010904/DTD/svg10.dtd">
<svg version="1.0" xmlns="http://www.w3.org/2000/svg"
 width="300.000000pt" height="244.000000pt" viewBox="0 0 300.000000 244.000000"
 preserveAspectRatio="xMidYMid meet">

<g transform="translate(0.000000,244.000000) scale(0.100000,-0.100000)"
fill="#000000" stroke="none">
<path d="M705 1358 c-3 -106 -5 -308 -3 -448 l3 -255 85 0 85 0 3 448 2 447
-84 0 -84 0 -7 -192z"/>
<path d="M942 1103 l3 -448 85 0 85 0 3 127 c3 125 2 127 -22 143 -55 37 -59
124 -6 169 29 24 30 27 30 119 0 52 -3 149 -7 215 l-6 122 -84 0 -83 0 2 -447z"/>
<path d="M1170 1342 l0 -208 30 -11 30 -11 0 219 0 219 -30 0 -30 0 0 -208z"/>
<path d="M1310 1278 c0 -318 -2 -323 -91 -361 l-50 -21 3 -121 3 -120 85 0 85
0 3 448 c2 442 2 447 -18 447 -20 0 -20 -6 -20 -272z"/>
<path d="M1412 1103 l3 -448 79 -3 c57 -2 82 1 87 10 5 7 9 93 9 190 0 163 -1
177 -18 182 -37 12 -67 55 -67 98 0 33 6 45 38 74 l37 34 0 155 0 155 -85 0
-85 0 2 -447z"/>
<path d="M1640 1395 c0 -87 4 -155 9 -155 5 0 16 -3 25 -6 14 -5 16 4 16 57 0
35 -3 108 -7 162 -5 85 -8 97 -25 97 -17 0 -18 -11 -18 -155z"/>
<path d="M1760 1326 c0 -253 -1 -258 -80 -292 l-40 -18 2 -181 3 -180 85 0 85
0 3 448 2 447 -30 0 -30 0 0 -224z"/>
<path d="M1882 1103 l3 -448 85 0 85 0 3 225 c2 124 0 325 -3 448 l-7 222 -84
0 -84 0 2 -447z"/>
<path d="M2352 1103 l3 -448 85 0 85 0 3 345 c2 190 0 391 -3 448 l-7 102 -84
0 -84 0 2 -447z"/>
<path d="M482 1512 c-10 -7 -12 -100 -10 -433 l3 -424 85 0 85 0 3 424 c2 333
0 426 -10 433 -7 4 -42 8 -78 8 -36 0 -71 -4 -78 -8z"/>
<path d="M2115 1407 c-3 -6 -4 -179 -3 -382 l3 -370 85 0 85 0 3 383 2 382
-85 0 c-59 0 -87 -4 -90 -13z"/>
<path d="M242 943 l3 -288 79 -3 c57 -2 82 1 87 10 10 15 12 382 3 491 l-7 77
-84 0 -83 0 2 -287z"/>
<path d="M2585 1188 c-3 -7 -4 -130 -3 -273 l3 -260 85 0 85 0 0 270 0 270
-83 3 c-61 2 -84 -1 -87 -10z"/>
<path d="M5 1028 c-3 -8 -4 -95 -3 -193 l3 -180 85 0 85 0 0 190 0 190 -83 3
c-61 2 -84 -1 -87 -10z"/>
<path d="M2825 1028 c-3 -8 -4 -95 -3 -193 l3 -180 85 0 85 0 0 190 0 190 -83
3 c-61 2 -84 -1 -87 -10z"/>
<path d="M464 468 c-50 -13 -69 -42 -69 -105 0 -59 4 -64 127 -169 44 -37 55
-72 36 -111 -30 -63 -110 -49 -124 22 -5 26 -11 35 -26 35 -18 0 -20 -5 -15
-36 13 -76 69 -113 142 -93 41 12 65 43 72 97 7 52 -15 91 -76 136 -99 73
-120 119 -80 170 38 48 109 20 109 -44 0 -23 4 -30 20 -30 30 0 27 60 -5 98
-27 32 -64 42 -111 30z"/>
<path d="M1588 473 c-15 -3 -39 -18 -53 -34 -25 -30 -25 -33 -25 -200 l0 -169
28 -31 c23 -26 35 -31 74 -31 59 0 86 15 104 57 21 50 18 65 -11 65 -21 0 -25
-5 -25 -29 0 -55 -70 -81 -110 -41 -18 18 -20 33 -20 180 0 147 2 162 20 180
40 40 110 14 110 -41 0 -24 4 -29 25 -29 29 0 32 15 11 65 -20 46 -65 67 -128
58z"/>
<path d="M680 240 l0 -230 105 0 c98 0 105 1 105 20 0 18 -7 20 -80 20 l-80 0
0 85 0 85 50 0 c43 0 50 3 50 20 0 17 -7 20 -50 20 l-50 0 0 85 0 85 80 0 c73
0 80 2 80 20 0 19 -7 20 -105 20 l-105 0 0 -230z"/>
<path d="M970 240 l0 -230 100 0 c93 0 100 1 100 20 0 18 -7 20 -80 20 l-80 0
0 210 c0 203 -1 210 -20 210 -19 0 -20 -7 -20 -230z"/>
<path d="M1230 240 l0 -230 105 0 c98 0 105 1 105 20 0 18 -7 20 -85 20 l-85
0 0 85 0 85 55 0 c48 0 55 2 55 20 0 18 -7 20 -55 20 l-55 0 0 85 0 85 85 0
c78 0 85 2 85 20 0 19 -7 20 -105 20 l-105 0 0 -230z"/>
<path d="M1790 450 c0 -17 7 -20 45 -20 l45 0 0 -210 c0 -203 1 -210 20 -210
19 0 20 7 20 210 l0 210 50 0 c43 0 50 3 50 20 0 19 -7 20 -115 20 -108 0
-115 -1 -115 -20z"/>
<path d="M2090 240 l0 -230 105 0 c98 0 105 1 105 20 0 18 -7 20 -80 20 l-80
0 0 85 0 85 50 0 c43 0 50 3 50 20 0 17 -7 20 -50 20 l-50 0 0 85 0 85 80 0
c73 0 80 2 80 20 0 19 -7 20 -105 20 l-105 0 0 -230z"/>
<path d="M2380 240 l0 -232 79 3 c124 6 141 33 141 229 0 196 -17 223 -141
229 l-79 3 0 -232z m154 168 c13 -18 16 -52 16 -168 0 -177 -5 -190 -81 -190
l-49 0 0 190 0 190 49 0 c40 0 53 -4 65 -22z"/>
</g>
</svg>
