<svg width="916" height="206" viewBox="0 0 916 206" fill="none" xmlns="http://www.w3.org/2000/svg">
<path d="M1101 20L1082.65 8.63125C1064.3 -2.3125 1027.6 -25.6875 990.9 -14C954.2 -2.3125 917.5 42.3125 880.8 82.3687C844.1 122 807.4 156 770.7 178.631C734 201.688 697.3 212.312 660.6 201.369C623.9 190 587.2 156 550.5 144.631C513.8 133.688 477.1 144.312 440.4 133.369C403.7 122 367 88 330.3 76.6313C293.6 65.6875 256.9 76.3125 220.2 88C183.5 99.6875 146.8 110.313 110.1 110.631C73.4 110.313 36.7 99.6875 18.35 93.6313L0 88V-48H18.35C36.7 -48 73.4 -48 110.1 -48C146.8 -48 183.5 -48 220.2 -48C256.9 -48 293.6 -48 330.3 -48C367 -48 403.7 -48 440.4 -48C477.1 -48 513.8 -48 550.5 -48C587.2 -48 623.9 -48 660.6 -48C697.3 -48 734 -48 770.7 -48C807.4 -48 844.1 -48 880.8 -48C917.5 -48 954.2 -48 990.9 -48C1027.6 -48 1064.3 -48 1082.65 -48H1101V20Z" fill="#307DB8"/>
</svg>
